<?xml version="1.0" standalone="no"?><!DOCTYPE svg PUBLIC "-//W3C//DTD SVG 1.1//EN" "http://www.w3.org/Graphics/SVG/1.1/DTD/svg11.dtd"><svg t="1763822140404" class="icon" viewBox="0 0 1024 1024" version="1.1" xmlns="http://www.w3.org/2000/svg" p-id="5265" xmlns:xlink="http://www.w3.org/1999/xlink" width="200" height="200"><path d="M896 704C896 720.213333 887.04 734.293333 873.386667 741.546667L536.32 930.986667C529.493333 936.106667 520.96 938.666667 512 938.666667 503.04 938.666667 494.506667 936.106667 487.68 930.986667L150.613333 741.546667C136.96 734.293333 128 720.213333 128 704L128 320C128 303.786667 136.96 289.706667 150.613333 282.453333L487.68 93.013333C494.506667 87.893333 503.04 85.333333 512 85.333333 520.96 85.333333 529.493333 87.893333 536.32 93.013333L873.386667 282.453333C887.04 289.706667 896 303.786667 896 320L896 704M213.333333 384 213.333333 640 266.666667 640 266.666667 554.666667 298.666667 554.666667C345.6 554.666667 384 516.266667 384 469.333333 384 422.4 345.6 384 298.666667 384L213.333333 384M266.666667 512 266.666667 426.666667 288 426.666667C311.466667 426.666667 330.666667 445.866667 330.666667 469.333333 330.666667 492.8 311.466667 512 288 512L266.666667 512M416 384 416 640 469.333333 640 469.333333 554.666667 501.333333 554.666667 529.493333 640 585.813333 640 552.106667 538.026667C573.013333 522.666667 586.666667 497.493333 586.666667 469.333333 586.666667 422.4 548.266667 384 501.333333 384L416 384M469.333333 512 469.333333 426.666667 490.666667 426.666667C514.133333 426.666667 533.333333 445.866667 533.333333 469.333333 533.333333 492.8 514.133333 512 490.666667 512L469.333333 512M725.333333 384C666.453333 384 618.666667 441.173333 618.666667 512 618.666667 582.826667 666.453333 640 725.333333 640 784.213333 640 832 582.826667 832 512 832 441.173333 784.213333 384 725.333333 384M725.333333 437.333333C757.76 437.333333 784.213333 470.613333 784.213333 512 784.213333 553.386667 757.76 586.666667 725.333333 586.666667 692.906667 586.666667 666.88 553.386667 666.88 512 666.88 470.613333 692.906667 437.333333 725.333333 437.333333Z" p-id="5266"></path></svg>