<?xml version="1.0" standalone="no"?><!DOCTYPE svg PUBLIC "-//W3C//DTD SVG 1.1//EN" "http://www.w3.org/Graphics/SVG/1.1/DTD/svg11.dtd"><svg t="1751274896474" class="icon" viewBox="0 0 1024 1024" version="1.1" xmlns="http://www.w3.org/2000/svg" p-id="29526" xmlns:xlink="http://www.w3.org/1999/xlink" width="200" height="200"><path d="M647.103024 959.469288 149.190881 959.469288c-47.777143 0-85.209684-38.476313-85.209684-87.598081L63.981197 151.619186c0-49.121767 37.432541-87.598081 85.209684-87.598081l563.684126 0c48.631604 0 89.727581 40.111556 89.727581 87.598081l0 729.98571c0 16.120143-13.059434 29.199019-29.15604 29.199019s-29.15604-13.078877-29.15604-29.199019l0-729.98571c0-15.550161-14.673188-29.199019-31.414477-29.199019L149.190881 122.420167c-15.337313 0-26.897603 12.546757-26.897603 29.199019l0 720.252021c0 16.653285 11.56029 29.199019 26.897603 29.199019l497.912144 0c16.096607 0 29.15604 13.078877 29.15604 29.199019S663.199631 959.469288 647.103024 959.469288z" p-id="29527" fill="#3699FF"></path><path d="M831.208089 957.036889c-47.719838 0-88.038102-41.2331-88.038102-90.031503 0-16.120143 13.059434-29.199019 29.15604-29.199019s29.15604 13.078877 29.15604 29.199019c0 16.558118 14.160511 31.632441 29.726022 31.632441 16.931624 0 29.706579-11.500938 29.706579-26.76662L860.914668 258.683621c0-16.120143 13.059434-29.199019 29.15604-29.199019s29.15604 13.078877 29.15604 29.199019l0 613.187587C919.226748 919.624814 880.561124 957.036889 831.208089 957.036889z" p-id="29528" fill="#3699FF"></path><path d="M637.384685 414.414451 209.762421 414.414451c-16.096607 0-29.15604-13.078877-29.15604-29.199019L180.606381 210.018248c0-16.120143 13.059434-29.199019 29.15604-29.199019l427.622264 0c16.096607 0 29.15604 13.078877 29.15604 29.199019l0 175.196161C666.540725 401.334551 653.481292 414.414451 637.384685 414.414451zM238.918461 356.01539l369.310184 0L608.228645 239.217267 238.918461 239.217267 238.918461 356.01539z" p-id="29529" fill="#3699FF"></path><path d="M511.042185 550.677904 219.48076 550.677904c-16.096607 0-29.15604-13.078877-29.15604-29.199019s13.059434-29.199019 29.15604-29.199019l291.561425 0c16.096607 0 29.15604 13.078877 29.15604 29.199019S527.138792 550.677904 511.042185 550.677904z" p-id="29530" fill="#3699FF"></path><path d="M608.228645 686.941358 219.48076 686.941358c-16.096607 0-29.15604-13.078877-29.15604-29.199019s13.059434-29.199019 29.15604-29.199019l388.747885 0c16.096607 0 29.15604 13.078877 29.15604 29.199019S624.325251 686.941358 608.228645 686.941358z" p-id="29531" fill="#3699FF"></path><path d="M511.042185 823.205834 219.48076 823.205834c-16.096607 0-29.15604-13.078877-29.15604-29.199019s13.059434-29.199019 29.15604-29.199019l291.561425 0c16.096607 0 29.15604 13.078877 29.15604 29.199019S527.138792 823.205834 511.042185 823.205834z" p-id="29532" fill="#3699FF"></path></svg>