<?xml version="1.0" standalone="no"?><!DOCTYPE svg PUBLIC "-//W3C//DTD SVG 1.1//EN" "http://www.w3.org/Graphics/SVG/1.1/DTD/svg11.dtd"><svg t="1752069602105" class="icon" viewBox="0 0 1024 1024" version="1.1" xmlns="http://www.w3.org/2000/svg" p-id="4321" xmlns:xlink="http://www.w3.org/1999/xlink" width="64" height="64"><path d="M890.311111 748.771556a56.888889 56.888889 0 0 1 6.656 113.436444l-6.599111 0.341333H192.512a56.888889 56.888889 0 0 1-6.599111-113.379555l6.599111-0.398222h697.856z m0-284.444445a56.888889 56.888889 0 0 1 6.656 113.436445l-6.599111 0.341333H192.512a56.888889 56.888889 0 0 1-6.599111-113.379556l6.599111-0.398222h697.856z m0-284.444444a56.888889 56.888889 0 0 1 6.656 113.436444l-6.599111 0.341333H192.512a56.888889 56.888889 0 0 1-6.599111-113.379555l6.599111-0.398222h697.856z" fill="#000000" p-id="4322"></path></svg>