<?xml version="1.0" standalone="no"?><!DOCTYPE svg PUBLIC "-//W3C//DTD SVG 1.1//EN" "http://www.w3.org/Graphics/SVG/1.1/DTD/svg11.dtd"><svg t="1759654909234" class="icon" viewBox="0 0 1024 1024" version="1.1" xmlns="http://www.w3.org/2000/svg" p-id="5785" xmlns:xlink="http://www.w3.org/1999/xlink" width="200" height="200"><path d="M304 928a48 48 0 1 0 0-96 48 48 0 0 0 0 96z m516.032 0a48 48 0 1 0 0-96 48 48 0 0 0 0 96zM64 192h100.864l88.896 533.248a51.2 51.2 0 0 0 50.56 42.752H896v-64H315.136L293.76 576h552.576A51.2 51.2 0 0 0 896 537.216l54.4-217.6A51.2 51.2 0 0 0 900.736 256H240.448l-14.208-85.248A51.2 51.2 0 0 0 175.68 128H64v64z m772.352 320H283.136l-32-192h633.216l-48 192z" fill-opacity=".9" p-id="5786"></path></svg>