<?xml version="1.0" standalone="no"?><!DOCTYPE svg PUBLIC "-//W3C//DTD SVG 1.1//EN" "http://www.w3.org/Graphics/SVG/1.1/DTD/svg11.dtd"><svg t="1757237228251" class="icon" viewBox="0 0 1024 1024" version="1.1" xmlns="http://www.w3.org/2000/svg" p-id="5357" xmlns:xlink="http://www.w3.org/1999/xlink" width="200" height="200"><path d="M404.096 170.666667a85.333333 85.333333 0 0 1 67.498667 33.109333L512 256l341.76 1.578667a85.333333 85.333333 0 0 1 84.906667 85.333333V768a85.333333 85.333333 0 0 1-85.333334 85.333333H170.666667a85.333333 85.333333 0 0 1-85.333334-85.333333V256a85.333333 85.333333 0 0 1 85.333334-85.333333h233.429333zM597.333333 320.426667H179.2a29.866667 29.866667 0 0 0-29.610667 25.813333L149.333333 350.293333V768a21.333333 21.333333 0 0 0 21.333334 21.333333h682.666666a21.333333 21.333333 0 0 0 21.333334-21.333333V342.912a21.333333 21.333333 0 0 0-21.248-21.333333L597.333333 320.426667zM404.096 234.666667H170.666667a21.333333 21.333333 0 0 0-20.992 17.493333l-0.341334 4.266667h282.069334l-10.453334-13.482667a21.333333 21.333333 0 0 0-16.853333-8.277333z" p-id="5358" fill="#1890ff"></path></svg>