<?xml version="1.0" standalone="no"?><!DOCTYPE svg PUBLIC "-//W3C//DTD SVG 1.1//EN" "http://www.w3.org/Graphics/SVG/1.1/DTD/svg11.dtd"><svg t="1764146582388" class="icon" viewBox="0 0 1024 1024" version="1.1" xmlns="http://www.w3.org/2000/svg" p-id="4628" xmlns:xlink="http://www.w3.org/1999/xlink" width="200" height="200"><path d="M330 741c-45.84 0-83-37.16-83-83V435c0-45.84 37.16-83 83-83s83 37.16 83 83v223c0 45.84-37.16 83-83 83zM597.25 741c-45.56 0-82.5-36.94-82.5-82.5v-479c0-45.56 36.94-82.5 82.5-82.5s82.5 36.94 82.5 82.5v479c0 45.56-36.94 82.5-82.5 82.5zM864.5 741c-45.56 0-82.5-36.94-82.5-82.5v-316c0-45.56 36.94-82.5 82.5-82.5s82.5 36.94 82.5 82.5v316c0 45.56-36.94 82.5-82.5 82.5z" fill="#2c2c2c" p-id="4629"></path><path d="M922 919H247.59c-37.65 0-70.78-8.18-98.48-24.3-23.39-13.62-42.39-32.52-56.46-56.17-22.59-37.96-24.48-75.73-24.62-79.92l-0.03-1.68V148c0-27.61 22.39-50 50-50s50 22.39 50 50v607.24c0.33 3.44 2.37 19.65 12.02 34.46 19.1 29.3 55.58 29.3 67.57 29.3H922c27.61 0 50 22.39 50 50s-22.39 50-50 50z" fill="#2c2c2c" p-id="4630"></path></svg>