<?xml version="1.0" standalone="no"?><!DOCTYPE svg PUBLIC "-//W3C//DTD SVG 1.1//EN" "http://www.w3.org/Graphics/SVG/1.1/DTD/svg11.dtd"><svg t="1751353658086" class="icon" viewBox="0 0 1024 1024" version="1.1" xmlns="http://www.w3.org/2000/svg" p-id="9481" xmlns:xlink="http://www.w3.org/1999/xlink" width="200" height="200"><path d="M887.466667 120.285867c0-24.9856-23.552-18.7392-30.890667-11.3664-13.994667 15.36-51.063467 46.557867-130.218667 63.010133a159.709867 159.709867 0 0 1-36.488533 3.959467c-38.161067 0-70.178133-12.458667-106.632533-27.2384-42.120533-16.452267-89.838933-35.157333-154.965334-35.157334-5.597867 0-11.195733 0-16.827733 0.546134-70.724267 3.413333-131.925333 34.6112-176.264533 57.890133-13.0048 6.587733-26.112 13.0048-39.253334 19.285333l-3.959466-9.6256-0.546134-0.580266a28.535467 28.535467 0 0 0-37.614933-15.325867 27.989333 27.989333 0 0 0-15.1552 15.906133 30.139733 30.139733 0 0 0 0 22.1184l292.4544 700.3136a28.194133 28.194133 0 0 0 26.385067 17.578667 24.917333 24.917333 0 0 0 11.229866-2.286933 29.0816 29.0816 0 0 0 15.1552-37.9904l-99.9424-239.5136a161.553067 161.553067 0 0 1 96.5632-73.181867 214.801067 214.801067 0 0 1 55.022934-7.406933c37.614933 0 74.069333 8.533333 112.810666 17.6128 35.362133 7.953067 71.304533 16.452267 106.666667 16.452266 53.316267 0 94.3104-18.7392 129.672533-58.4704a28.7744 28.7744 0 0 0 2.798934-9.079466V120.285867z" fill="#8a8a8a" p-id="9482"></path></svg>