<?xml version="1.0" standalone="no"?><!DOCTYPE svg PUBLIC "-//W3C//DTD SVG 1.1//EN" "http://www.w3.org/Graphics/SVG/1.1/DTD/svg11.dtd"><svg t="1751353689467" class="icon" viewBox="0 0 1024 1024" version="1.1" xmlns="http://www.w3.org/2000/svg" p-id="11916" xmlns:xlink="http://www.w3.org/1999/xlink" width="200" height="200"><path d="M780.0832 267.1616C780.0832 119.6032 660.0704 0 512 0 363.9296 0 243.9168 119.6032 243.9168 267.1616c0 147.5584 268.0832 556.544 268.0832 556.544S780.0832 414.6176 780.0832 267.1616zM512 44.544c123.392 0 223.4368 99.6352 223.4368 222.6176 0 122.9824-223.4368 489.7792-223.4368 489.7792S288.5632 390.0416 288.5632 267.1616C288.5632 144.1792 388.608 44.544 512 44.544zM601.3952 267.1616c0-49.152-40.0384-89.088-89.3952-89.088-49.3568 0-89.3952 39.8336-89.3952 89.088 0 49.152 40.0384 89.088 89.3952 89.088C561.3568 356.1472 601.3952 316.3136 601.3952 267.1616zM467.3536 267.1616c0-24.576 19.968-44.544 44.6464-44.544s44.6464 19.968 44.6464 44.544c0 24.576-19.968 44.544-44.6464 44.544S467.3536 291.7376 467.3536 267.1616zM1003.4176 400.7936 1003.4176 400.7936l-201.1136 88.9856 0 44.544 156.4672-69.3248 0 403.2512L623.7184 979.456 333.312 823.6032 65.1264 938.1888l0-398.336 134.0416-50.0736 0-44.544L20.48 512l0 22.2208 0 22.2208 0 400.6912 0 22.2208 0 22.2208 312.832-133.5296L623.7184 1024 1003.52 890.4704 1003.4176 400.7936 1003.4176 400.7936z" p-id="11917" fill="#8a8a8a"></path></svg>