<?xml version="1.0" standalone="no"?><!DOCTYPE svg PUBLIC "-//W3C//DTD SVG 1.1//EN" "http://www.w3.org/Graphics/SVG/1.1/DTD/svg11.dtd"><svg t="1750846692194" class="icon" viewBox="0 0 1024 1024" version="1.1" xmlns="http://www.w3.org/2000/svg" p-id="6719" xmlns:xlink="http://www.w3.org/1999/xlink" width="200" height="200"><path d="M519.817 946.961c-91.38 0-182.761-24.047-259.711-67.333L58.108 937.341l48.095-201.998C62.918 668.01 38.87 591.059 38.87 514.108c0-240.474 216.427-437.66 480.945-437.66 264.521 0 480.945 197.188 480.945 437.66 0 235.663-216.427 432.85-480.945 432.85zM269.724 817.105l9.618 4.81c72.142 43.285 153.903 67.333 240.474 67.333 235.663 0 428.042-173.14 428.042-384.755 0-211.616-192.379-384.755-428.042-384.755-235.663 0-428.042 173.14-428.042 384.755 0 72.142 24.047 139.475 62.525 201.998l4.81 9.618-33.666 139.475 144.284-38.476z" fill="#ffffff" p-id="6720"></path><path d="M774.719 509.302c0 28.857-24.047 52.903-52.903 52.903s-52.903-24.047-52.903-52.903 24.047-52.903 52.903-52.903 52.903 24.047 52.903 52.903z m-177.952 0c0 28.857-24.047 52.903-52.903 52.903s-52.903-24.047-52.903-52.903c0-28.857 24.047-52.903 52.903-52.903 28.857 0 52.903 24.047 52.903 52.903z m-177.95 0c0 28.857-24.047 52.903-52.903 52.903s-52.903-24.047-52.903-52.903c0-28.857 24.047-52.903 52.903-52.903 28.857 0 52.903 24.047 52.903 52.903z" fill="#ffffff" p-id="6721"></path></svg>