<?xml version="1.0" standalone="no"?><!DOCTYPE svg PUBLIC "-//W3C//DTD SVG 1.1//EN" "http://www.w3.org/Graphics/SVG/1.1/DTD/svg11.dtd"><svg t="1751353588226" class="icon" viewBox="0 0 1024 1024" version="1.1" xmlns="http://www.w3.org/2000/svg" p-id="6681" xmlns:xlink="http://www.w3.org/1999/xlink" width="200" height="200"><path d="M812.373333 175.786667h-15.36c-42.666667 6.826667-139.946667 10.24-286.72 10.24h-11.946666c-47.786667 0-83.626667 8.533333-117.76 25.6-146.773333 66.56-203.093333 232.106667-155.306667 452.266666 0 1.706667 1.706667 3.413333 1.706667 5.12-30.72 40.96-63.146667 85.333333-93.866667 136.533334-8.533333 13.653333-5.12 30.72 8.533333 39.253333 5.12 3.413333 10.24 3.413333 13.653334 3.413333 10.24 0 18.773333-5.12 23.893333-13.653333 25.6-40.96 51.2-78.506667 76.8-112.64 52.906667 54.613333 153.6 66.56 252.586667 69.973333h11.946666c81.92 0 158.72-39.253333 211.626667-105.813333 73.386667-90.453333 126.293333-221.866667 160.426667-390.826667 1.706667-5.12 1.706667-10.24 1.706666-11.946666v-18.773334c1.706667-49.493333-34.133333-88.746667-81.92-88.746666z m27.306667 97.28c0 3.413333-1.706667 6.826667-1.706667 10.24-30.72 160.426667-81.92 283.306667-148.48 366.933333-42.666667 54.613333-104.106667 85.333333-168.96 85.333333h-10.24c-143.36-5.12-197.973333-30.72-218.453333-58.026666 167.253333-201.386667 325.973333-262.826667 327.68-262.826667 13.653333-5.12 22.186667-22.186667 17.066667-35.84-5.12-13.653333-22.186667-22.186667-35.84-17.066667-8.533333 3.413333-162.133333 61.44-329.386667 252.586667-29.013333-174.08 17.066667-298.666667 133.12-351.573333 27.306667-13.653333 54.613333-18.773333 93.866667-18.773334h11.946666c56.32 0 226.986667 0 291.84-11.946666h11.946667c18.773333 0 27.306667 17.066667 27.306667 34.133333v6.826667z" fill="#8a8a8a" p-id="6682"></path></svg>