<?xml version="1.0" standalone="no"?><!DOCTYPE svg PUBLIC "-//W3C//DTD SVG 1.1//EN" "http://www.w3.org/Graphics/SVG/1.1/DTD/svg11.dtd"><svg t="1751264500000" class="icon" viewBox="0 0 1024 1024" version="1.1" xmlns="http://www.w3.org/2000/svg" p-id="1001" xmlns:xlink="http://www.w3.org/1999/xlink" width="200" height="200"><path d="M512 85.333333c235.648 0 426.666667 191.018667 426.666667 426.666667s-191.018667 426.666667-426.666667 426.666667S85.333333 747.648 85.333333 512 276.352 85.333333 512 85.333333z m0 85.333334a341.333333 341.333333 0 1 0 0 682.666666 341.333333 341.333333 0 0 0 0-682.666666z m42.666667 170.666666v170.666667h170.666666a42.666667 42.666667 0 0 1 0 85.333333h-170.666666v170.666667a42.666667 42.666667 0 0 1-85.333334 0v-170.666667H298.666667a42.666667 42.666667 0 0 1 0-85.333333h170.666666V341.333333a42.666667 42.666667 0 0 1 85.333334 0z" p-id="1002"></path></svg>