<?xml version="1.0" standalone="no"?><!DOCTYPE svg PUBLIC "-//W3C//DTD SVG 1.1//EN" "http://www.w3.org/Graphics/SVG/1.1/DTD/svg11.dtd"><svg t="1750904255111" class="icon" viewBox="0 0 1024 1024" version="1.1" xmlns="http://www.w3.org/2000/svg" p-id="7799" xmlns:xlink="http://www.w3.org/1999/xlink" width="200" height="200"><path d="M512 0a512 512 0 1 1 0 1024A512 512 0 0 1 512 0zM341.312 359.296a71.872 71.872 0 1 1 143.744 0 71.872 71.872 0 0 1-143.744 0zM512 63.68a444.608 444.608 0 0 0-408 621.44 346.112 346.112 0 0 1 381.44 23.744 442.24 442.24 0 0 1 463.168-116.48A444.608 444.608 0 0 0 512 63.744zM133.568 740.224a429.76 429.76 0 0 0 235.84 191.552c12.288-64.64 39.04-124.16 76.8-174.976a283.904 283.904 0 0 0-168.96-55.488c-52.416 0-101.44 14.272-143.68 38.912z m387.52 214.976c193.28 0 357.056-126.72 412.672-301.696a379.392 379.392 0 0 0-124.032-20.928 381.76 381.76 0 0 0-375.488 313.92c28.096 5.696 57.088 8.704 86.848 8.704z" fill="#ffffff" p-id="7800"></path></svg>