<?xml version="1.0" standalone="no"?><!DOCTYPE svg PUBLIC "-//W3C//DTD SVG 1.1//EN" "http://www.w3.org/Graphics/SVG/1.1/DTD/svg11.dtd"><svg t="1750847175334" class="icon" viewBox="0 0 1024 1024" version="1.1" xmlns="http://www.w3.org/2000/svg" p-id="18506" xmlns:xlink="http://www.w3.org/1999/xlink" width="200" height="200"><path d="M512 85.333333a384 384 0 0 1 384 384c0 212.053333-171.946667 384-384 384a383.146667 383.146667 0 0 1-179.2-44.8L128 853.333333l44.8-204.8A383.146667 383.146667 0 0 1 128 469.333333c0-212.053333 171.946667-384 384-384z m0 85.333334a298.666667 298.666667 0 0 0-298.666667 298.666666c0 53.333333 14.933333 106.666667 42.666667 149.333334l14.933333 23.466666-23.466666 106.666667 106.666666-23.466667 23.466667 14.933334A298.666667 298.666667 0 0 0 512 768a298.666667 298.666667 0 0 0 298.666667-298.666667A298.666667 298.666667 0 0 0 512 170.666667z m-128 213.333333a42.666667 42.666667 0 0 1 85.333333 0v85.333333a42.666667 42.666667 0 0 1-85.333333 0v-85.333333z m170.666667 0a42.666667 42.666667 0 0 1 85.333333 0v85.333333a42.666667 42.666667 0 0 1-85.333333 0v-85.333333z" p-id="7503"></path><path d="M167.266462 532.873846a35.84 35.84 0 0 1 35.84-35.84h24.694153a35.84 35.84 0 1 1 0 71.68h-24.694153a35.84 35.84 0 0 1-35.84-35.84z m186.28923 0a35.84 35.84 0 0 1 35.84-35.84h402.353231a35.84 35.84 0 1 1 0 71.68H389.395692a35.84 35.84 0 0 1-35.84-35.84zM160.137846 288.846769l292.942769-177.112615 37.257847 61.636923L197.395692 350.523077l-37.257846-61.636923z m388.135385-117.208615l37.297231-61.636923 291.328 176.167384-37.257847 61.636923-291.367384-176.167384zM167.266462 752.64a35.84 35.84 0 0 1 35.84-35.84h593.84123a35.84 35.84 0 1 1 0 71.68H203.106462a35.84 35.84 0 0 1-35.84-35.84z" p-id="18508"></path><path d="M512 228.036923a103.975385 103.975385 0 1 1-0.118154-207.950769A103.975385 103.975385 0 0 1 512 228.036923z m0-136.270769a32.295385 32.295385 0 1 0-0.118154 64.630154 32.295385 32.295385 0 0 0 0.118154-64.59077z" p-id="18509"></path></svg>