<?xml version="1.0" standalone="no"?><!DOCTYPE svg PUBLIC "-//W3C//DTD SVG 1.1//EN" "http://www.w3.org/Graphics/SVG/1.1/DTD/svg11.dtd"><svg t="1750846786196" class="icon" viewBox="0 0 1024 1024" version="1.1" xmlns="http://www.w3.org/2000/svg" p-id="8832" xmlns:xlink="http://www.w3.org/1999/xlink" width="200" height="200"><path d="M512 85.333333a384 384 0 0 1 384 384c0 212.053333-171.946667 384-384 384a383.146667 383.146667 0 0 1-179.2-44.8L128 853.333333l44.8-204.8A383.146667 383.146667 0 0 1 128 469.333333c0-212.053333 171.946667-384 384-384z m0 85.333334a298.666667 298.666667 0 0 0-298.666667 298.666666c0 53.333333 14.933333 106.666667 42.666667 149.333334l14.933333 23.466666-23.466666 106.666667 106.666666-23.466667 23.466667 14.933334A298.666667 298.666667 0 0 0 512 768a298.666667 298.666667 0 0 0 298.666667-298.666667A298.666667 298.666667 0 0 0 512 170.666667z m-128 213.333333a42.666667 42.666667 0 0 1 85.333333 0v85.333333a42.666667 42.666667 0 0 1-85.333333 0v-85.333333z m170.666667 0a42.666667 42.666667 0 0 1 85.333333 0v85.333333a42.666667 42.666667 0 0 1-85.333333 0v-85.333333z" p-id="7503"></path></svg>