<?xml version="1.0" standalone="no"?><!DOCTYPE svg PUBLIC "-//W3C//DTD SVG 1.1//EN" "http://www.w3.org/Graphics/SVG/1.1/DTD/svg11.dtd"><svg t="1750846786196" class="icon" viewBox="0 0 1024 1024" version="1.1" xmlns="http://www.w3.org/2000/svg" p-id="8832" xmlns:xlink="http://www.w3.org/1999/xlink" width="200" height="200"><path d="M143.612587 233.305429c0-38.602069 31.296171-69.903701 69.903701-69.903701s69.903701 31.301632 69.903701 69.903701c0 38.608896-31.296171 69.910528-69.903701 69.910528s-69.903701-31.301632-69.903701-69.910528z m104.574976 135.477931c68.086443-17.642837 112.480256-83.103744 103.691605-152.885931-8.790016-69.786283-68.026368-122.186411-138.36288-122.399402-70.51264-0.064171-130.031616 52.383744-138.847573 122.340693-8.811861 69.952853 35.849557 135.525717 104.174933 152.94464a34.944341 34.944341 0 0 0-0.282624 4.336299v139.807402c0 1.466368 0.106496 2.901333 0.282624 4.336299-61.781333 15.877461-104.996864 71.540736-105.061035 135.333205-0.064171 63.787008 43.035307 119.54176 104.778411 135.546198v109.264896c0 19.300352 15.653547 34.948437 34.955264 34.948437s34.953899-15.648085 34.953899-34.948437v-109.264896c61.744469-16.004437 104.843947-71.759189 104.779776-135.546198-0.064171-63.792469-43.281067-119.455744-105.0624-135.333205 0.176128-1.396736 0.282624-2.869931 0.282624-4.336299V373.119659c0-1.466368-0.106496-2.901333-0.282624-4.336299z m-34.671275 353.861632c-38.607531 0-69.903701-31.296171-69.903701-69.903701 0-38.608896 31.296171-69.910528 69.903701-69.910528s69.903701 31.301632 69.903701 69.910528c0 38.607531-31.296171 69.903701-69.903701 69.903701z m279.621632-524.288c-19.307179 0-34.955264 15.648085-34.955264 34.948437 0 19.307179 15.648085 34.955264 34.955264 34.955264h419.429035c19.301717 0 34.953899-15.648085 34.953898-34.955264 0-19.300352-15.652181-34.948437-34.953898-34.948437H493.13792z m0 419.429035c-19.307179 0-34.955264 15.648085-34.955264 34.955264 0 19.300352 15.648085 34.948437 34.955264 34.948437h384.473771c19.307179 0 34.955264-15.648085 34.955264-34.948437 0-19.307179-15.648085-34.955264-34.955264-34.955264H493.13792z m-34.955264 209.71793c0-19.307179 15.648085-34.955264 34.955264-34.955264h279.620267c19.301717 0 34.949803 15.648085 34.949802 34.955264 0 19.300352-15.648085 34.948437-34.949802 34.948438h-279.620267c-19.307179 0-34.955264-15.648085-34.955264-34.948438z m34.955264-454.384298c-19.307179 0-34.955264 15.648085-34.955264 34.948437 0 19.307179 15.648085 34.955264 34.955264 34.955264h279.620267c19.301717 0 34.949803-15.648085 34.949802-34.955264 0-19.300352-15.648085-34.948437-34.949802-34.948437h-279.620267z m0 0" p-id="8833" fill="#3699FF"></path></svg>