<?xml version="1.0" standalone="no"?><!DOCTYPE svg PUBLIC "-//W3C//DTD SVG 1.1//EN" "http://www.w3.org/Graphics/SVG/1.1/DTD/svg11.dtd"><svg t="1764565298868" class="icon" viewBox="0 0 1024 1024" version="1.1" xmlns="http://www.w3.org/2000/svg" p-id="5444" xmlns:xlink="http://www.w3.org/1999/xlink" width="200" height="200"><path d="M832 198.464A447.99 447.99 0 0 0 512 64C264.577 64 64 264.576 64 512c0 247.423 200.577 448 448 448 247.424 0 448-200.577 448-448v-0.23l-64-0.002V512c0 106.038-37.491 196.548-112.474 271.53C708.547 858.51 618.038 896 512 896c-106.038 0-196.549-37.491-271.529-112.471C165.491 708.548 128 618.038 128 512c0-106.038 37.491-196.547 112.471-271.526C315.451 165.491 405.962 128 512.001 128c106.037 0 196.546 37.491 271.525 112.474 21.701 21.696 40.258 44.691 55.674 68.985l0.755-0.345A31.997 31.997 0 0 0 864 320c17.67 0 32-14.33 32-32v-4.595l1.018-0.46-1.018-1.703V96c0-17.67-14.33-32-32-32s-32 14.33-32 32v102.464zM448.031 575.875h256.014v-64H512.031V319.872h-64v256.003z" p-id="5445"></path></svg>